# xmcd
#
# Track frame offsets:
# 150
# 15592
# 36445
# 53580
# 66020
# 81307
# 93785
# 106045
# 121305
# 132287
# 147567
# 160140
# 171190
#
# Disc length: 2507 seconds
#
#
# Revision: 0
# Processed by: cddbd v1.5.2PL0 Copyright (c) Steve Scherf et al.
# Submitted via: FreeRIP 2.945 
#
DISCID=a609c90d
DTITLE=Malachias e seu sax de ouro-sax de ouro internacional - sax de ouro internacional
DYEAR=1900
DGENRE=Blues
TTITLE0=theme from blade runner
TTITLE1=my heart will go on
TTITLE2=new york new york
TTITLE3=nunca aos domingos
TTITLE4=hey jude
TTITLE5=quizas, quizas, quizas
TTITLE6=frenesi
TTITLE7=uno
TTITLE8=tema de lara
TTITLE9=dio como te amo
TTITLE10=unforgettable
TTITLE11=somewhere in time
TTITLE12=la mer
EXTD=
EXTT0=
EXTT1=
EXTT2=
EXTT3=
EXTT4=
EXTT5=
EXTT6=
EXTT7=
EXTT8=
EXTT9=
EXTT10=
EXTT11=
EXTT12=
PLAYORDER=
